<svg width="14" height="25" viewBox="0 0 14 25"  xmlns="http://www.w3.org/2000/svg">
<path d="M6.35742 10.9263C6.79036 10.7098 7.25749 10.4876 7.75879 10.2598C8.26009 10.0319 8.72152 9.84391 9.14307 9.6958V6.8418C9.14307 6.24935 9.11458 5.69678 9.05762 5.18408C9.01204 4.67139 8.85824 4.25553 8.59619 3.93652C8.34554 3.60612 7.9126 3.44092 7.29736 3.44092C6.68213 3.44092 6.12956 3.69157 5.63965 4.19287C5.14974 4.69417 4.90479 5.62272 4.90479 6.97852V7.91846H1.60645C1.40137 7.02979 1.29883 6.25505 1.29883 5.59424C1.29883 3.83968 1.87419 2.50667 3.0249 1.59521C4.17562 0.672363 5.64535 0.210938 7.43408 0.210938C8.99495 0.210938 10.214 0.433105 11.0913 0.877441C11.9686 1.31038 12.5838 1.97119 12.937 2.85986C13.2902 3.73714 13.4668 4.85368 13.4668 6.20947V24H10.1343L9.82666 21.9834C9.37093 22.6442 8.76709 23.1911 8.01514 23.624C7.26318 24.057 6.3916 24.2734 5.40039 24.2734C4.375 24.2734 3.5319 24.0114 2.87109 23.4873C2.21029 22.9632 1.71468 22.2739 1.38428 21.4194C1.06527 20.5535 0.905762 19.6136 0.905762 18.5996C0.905762 16.6628 1.36719 15.1247 2.29004 13.9854C3.21289 12.8346 4.56868 11.8149 6.35742 10.9263ZM7.31445 20.9751C7.67904 20.9751 8.01514 20.884 8.32275 20.7017C8.63037 20.508 8.90381 20.2744 9.14307 20.001V12.584C8.9266 12.6751 8.69303 12.7834 8.44238 12.9087C8.19173 13.034 7.9012 13.1992 7.5708 13.4043C6.96696 13.7803 6.40299 14.3442 5.87891 15.0962C5.35482 15.8368 5.09277 16.7824 5.09277 17.9331C5.09277 18.8332 5.26937 19.568 5.62256 20.1377C5.97575 20.696 6.53971 20.9751 7.31445 20.9751Z" fill="#202020"/>
</svg>
