<svg width="13" height="25" viewBox="0 0 13 25" fill="none" xmlns="http://www.w3.org/2000/svg">
<path d="M0.623535 14.3613V9.91797C0.623535 8.11784 0.771647 6.62533 1.06787 5.44043C1.37549 4.25553 1.77425 3.3099 2.26416 2.60352C2.75407 1.89714 3.29525 1.37305 3.8877 1.03125C4.48014 0.689453 5.06689 0.467285 5.64795 0.364746C6.229 0.250814 6.75879 0.193848 7.2373 0.193848C8.83236 0.193848 10.1255 0.615397 11.1167 1.4585C12.1079 2.3016 12.6035 3.60612 12.6035 5.37207C12.6035 5.90755 12.575 6.37467 12.5181 6.77344C12.4725 7.1722 12.4041 7.55387 12.313 7.91846H9.03174V7.18359C9.03174 5.9987 8.86654 5.07585 8.53613 4.41504C8.21712 3.74284 7.73861 3.40674 7.10059 3.40674C6.4056 3.40674 5.87581 3.79411 5.51123 4.56885C5.14665 5.33219 4.96436 6.72786 4.96436 8.75586V15.438C4.96436 17.4888 5.12386 18.9357 5.44287 19.7788C5.77327 20.6219 6.36003 21.0435 7.20312 21.0435C7.63607 21.0435 8.04622 20.8156 8.43359 20.3599C8.83236 19.8927 9.03174 19.0382 9.03174 17.7964V16.771H12.5352V17.8477C12.5352 20.0807 12.0566 21.71 11.0996 22.7354C10.1426 23.7493 8.68424 24.2563 6.72461 24.2563C4.74219 24.2563 3.22689 23.4816 2.17871 21.9321C1.14193 20.3826 0.623535 17.859 0.623535 14.3613Z" fill="#202020"/>
</svg>
