<svg width="14" height="25" viewBox="0 0 14 25" xmlns="http://www.w3.org/2000/svg">
<path d="M0.623535 14.3613V9.91797C0.623535 8.11784 0.777344 6.62533 1.08496 5.44043C1.39258 4.25553 1.79704 3.3099 2.29834 2.60352C2.81104 1.89714 3.3693 1.37305 3.97314 1.03125C4.58838 0.689453 5.19792 0.467285 5.80176 0.364746C6.4056 0.250814 6.95817 0.193848 7.45947 0.193848C8.49626 0.193848 9.45329 0.416016 10.3306 0.860352C11.2078 1.29329 11.9085 2.04525 12.4326 3.11621C12.9681 4.17578 13.2358 5.6512 13.2358 7.54248C13.2358 8.48812 13.1846 9.45654 13.082 10.4478C12.9795 11.4276 12.8428 12.2935 12.6719 13.0454H4.96436V15.438C4.96436 17.4888 5.13525 18.9357 5.47705 19.7788C5.83024 20.6219 6.49674 21.0435 7.47656 21.0435C8.01204 21.0435 8.49626 20.8156 8.9292 20.3599C9.36214 19.8927 9.57861 19.0382 9.57861 17.7964V16.771H13.1333V17.8477C13.1333 20.0807 12.5978 21.71 11.5269 22.7354C10.4673 23.7493 8.9292 24.2563 6.9126 24.2563C4.8846 24.2563 3.32943 23.4816 2.24707 21.9321C1.16471 20.3826 0.623535 17.859 0.623535 14.3613ZM9.20264 10.1401C9.22542 9.88949 9.24251 9.51351 9.25391 9.01221C9.2653 8.49951 9.271 8.08936 9.271 7.78174C9.271 6.22087 9.10579 5.10433 8.77539 4.43213C8.44499 3.75993 7.9209 3.41813 7.20312 3.40674C6.43978 3.40674 5.87581 3.79411 5.51123 4.56885C5.14665 5.33219 4.96436 6.72786 4.96436 8.75586V10.1401H9.20264Z" fill="#202020"/>
</svg>
