<svg width="14" height="24" viewBox="0 0 14 24" xmlns="http://www.w3.org/2000/svg">
<path d="M0.20459 0.467285H3.50293L3.93018 2.97949V2.99658C4.60238 1.91423 5.36572 1.17936 6.22021 0.791992C7.07471 0.393229 7.9349 0.193848 8.80078 0.193848C10.168 0.193848 11.2275 0.67806 11.9795 1.64648C12.7314 2.61491 13.1074 4.05615 13.1074 5.97021V24H8.78369V6.48291C8.78369 5.44613 8.62419 4.72835 8.30518 4.32959C7.98617 3.91943 7.51904 3.71436 6.90381 3.71436C6.47087 3.71436 6.04932 3.85677 5.63916 4.1416C5.229 4.42643 4.85872 4.8195 4.52832 5.3208V24H0.20459V0.467285Z" fill="#202020"/>
</svg>
