<svg width="14" height="25" viewBox="0 0 14 25" xmlns="http://www.w3.org/2000/svg">
<path d="M7.13477 24.2563C6.38281 24.2563 5.62516 24.1481 4.86182 23.9316C4.09847 23.7038 3.39209 23.248 2.74268 22.5645C2.10465 21.8809 1.59196 20.8498 1.20459 19.4712C0.81722 18.0812 0.623535 16.2241 0.623535 13.8999V10.2085C0.623535 7.91846 0.822917 6.10693 1.22168 4.77393C1.62044 3.42952 2.14453 2.43262 2.79395 1.7832C3.44336 1.1224 4.14974 0.69515 4.91309 0.501465C5.67643 0.296387 6.42269 0.193848 7.15186 0.193848C7.85824 0.193848 8.5874 0.29069 9.33936 0.484375C10.0913 0.666667 10.7863 1.08252 11.4243 1.73193C12.0623 2.36995 12.5807 3.36686 12.9795 4.72266C13.3783 6.06706 13.5776 7.89567 13.5776 10.2085V13.8999C13.5776 16.1899 13.3726 18.0243 12.9624 19.4028C12.5522 20.77 12.0225 21.8068 11.373 22.5132C10.7236 23.2082 10.0229 23.6753 9.271 23.9146C8.53044 24.1424 7.81836 24.2563 7.13477 24.2563ZM7.16895 21.0435C7.94368 21.0435 8.47917 20.6162 8.77539 19.7617C9.08301 18.9072 9.23682 17.3805 9.23682 15.1816V9.31982C9.23682 7.10954 9.08301 5.57145 8.77539 4.70557C8.47917 3.83968 7.94368 3.40674 7.16895 3.40674C6.36003 3.40674 5.79036 3.83968 5.45996 4.70557C5.12956 5.57145 4.96436 7.10954 4.96436 9.31982V15.1816C4.96436 17.3805 5.12956 18.9072 5.45996 19.7617C5.79036 20.6162 6.36003 21.0435 7.16895 21.0435Z" fill="#202020"/>
</svg>
