<svg width="11" height="24" viewBox="0 0 11 24" fill="none" xmlns="http://www.w3.org/2000/svg">
<path d="M0.20459 0.467285H3.36621L3.74219 2.85986C4.20931 1.97119 4.75618 1.30469 5.38281 0.860352C6.00944 0.416016 6.64746 0.193848 7.29688 0.193848C9.72363 0.193848 10.937 1.72054 10.937 4.77393C10.937 5.1613 10.88 5.67399 10.7661 6.31201C10.6522 6.93864 10.5155 7.49121 10.356 7.96973H7.34814V6.14111C7.34814 5.19548 7.20573 4.55745 6.9209 4.22705C6.63607 3.88525 6.28288 3.71436 5.86133 3.71436C5.32585 3.71436 4.88151 4.1359 4.52832 4.979V24H0.20459V0.467285Z" fill="#202020"/>
</svg>
